<svg width="11" height="12" viewBox="0 0 11 12" fill="none" xmlns="http://www.w3.org/2000/svg">
<path d="M2.75 1C1.99375 1 1.32 1.31651 0.81125 1.81192C0.31625 2.30733 0 2.98164 0 3.75228C0 4.50915 0.31625 5.18346 0.81125 5.69263L5.5 10.3853L10.1887 5.69263C10.6837 5.19722 11 4.52291 11 3.75228C11 2.9954 10.6837 2.32109 10.1887 1.81192C9.69375 1.31651 9.02 1 8.25 1C7.49375 1 6.82 1.31651 6.31125 1.81192C5.81625 2.30733 5.5 2.98164 5.5 3.75228C5.5 2.9954 5.18375 2.32109 4.68875 1.81192C4.19375 1.31651 3.52 1 2.75 1Z" fill="#F6ED1E"/>
</svg>
