<svg width="16" height="16" viewBox="0 0 16 16" fill="none" xmlns="http://www.w3.org/2000/svg">
<path d="M1.05846 8C1.05846 10.7508 2.65846 13.12 4.9723 14.2462L1.66154 5.17539C1.26398 6.064 1.05848 7.02651 1.05846 8ZM8 14.9415C8.80616 14.9415 9.58154 14.8 10.3077 14.5477L10.2585 14.4554L8.12307 8.60923L6.04307 14.6585C6.65846 14.8431 7.31693 14.9415 8 14.9415ZM8.95384 4.74461L11.4646 12.2092L12.16 9.89539C12.4554 8.93539 12.6831 8.24616 12.6831 7.64923C12.6831 6.7877 12.3754 6.19693 12.1169 5.74154C11.76 5.16307 11.4338 4.67693 11.4338 4.11077C11.4338 3.47077 11.9138 2.88 12.6031 2.88H12.6892C11.4102 1.70579 9.7363 1.05557 8 1.05846C6.85035 1.05825 5.71867 1.34383 4.70678 1.88952C3.69488 2.43522 2.83451 3.22389 2.20307 4.18461L2.64616 4.19693C3.3723 4.19693 4.4923 4.10461 4.4923 4.10461C4.87384 4.08616 4.91693 4.63384 4.54154 4.67693C4.54154 4.67693 4.16616 4.72616 3.74154 4.74461L6.27693 12.2646L7.79693 7.71077L6.71384 4.74461C6.47125 4.73123 6.22909 4.7107 5.9877 4.68307C5.6123 4.65846 5.65539 4.08616 6.03077 4.10461C6.03077 4.10461 7.17539 4.19693 7.85846 4.19693C8.58461 4.19693 9.70461 4.10461 9.70461 4.10461C10.08 4.08616 10.1292 4.63384 9.75384 4.67693C9.75384 4.67693 9.37846 4.72 8.95384 4.74461ZM11.4892 14C12.5393 13.3894 13.4108 12.5139 14.0167 11.461C14.6225 10.4082 14.9414 9.21474 14.9415 8C14.9415 6.79384 14.6338 5.66154 14.0923 4.67077C14.2023 5.76078 14.0372 6.86099 13.6123 7.87077L11.4892 14ZM8 16C5.87827 16 3.84344 15.1572 2.34315 13.6568C0.842854 12.1566 0 10.1217 0 8C0 5.87827 0.842854 3.84344 2.34315 2.34315C3.84344 0.842854 5.87827 0 8 0C10.1217 0 12.1566 0.842854 13.6568 2.34315C15.1572 3.84344 16 5.87827 16 8C16 10.1217 15.1572 12.1566 13.6568 13.6568C12.1566 15.1572 10.1217 16 8 16Z" fill="#126FC2"/>
</svg>
