<svg width="16" height="16" fill="none" xmlns="http://www.w3.org/2000/svg"><path d="M2.647 2.805c.497.404.684.373 1.618.31l8.81-.528c.187 0 .032-.187-.03-.217L11.58 1.312c-.28-.218-.654-.467-1.37-.405l-8.53.623c-.311.03-.374.186-.25.31l1.216.965zm.528 2.053v9.27c0 .498.249.684.81.653l9.682-.56c.56-.03.623-.373.623-.778V4.236c0-.404-.155-.622-.499-.592l-10.118.592c-.373.031-.498.218-.498.622zm9.558.497c.062.28 0 .56-.28.592l-.466.093v6.843c-.406.218-.779.343-1.09.343-.499 0-.624-.156-.997-.622l-3.051-4.79v4.634l.965.218s0 .56-.779.56l-2.148.124c-.062-.123 0-.435.218-.497l.56-.155V6.569l-.776-.063c-.063-.28.093-.684.528-.715l2.304-.155 3.176 4.853V6.195l-.81-.093c-.062-.342.187-.59.498-.622l2.148-.125zM.965.69L9.838.037c1.09-.094 1.37-.032 2.055.466l2.832 1.99c.467.343.623.436.623.81V14.22c0 .684-.249 1.09-1.12 1.15l-10.305.623c-.654.032-.966-.062-1.308-.498L.529 12.79C.155 12.292 0 11.92 0 11.483V1.778C0 1.218.25.75.965.69z" fill="#000"/></svg>