<svg width="16" height="16" viewBox="0 0 16 16" fill="none" xmlns="http://www.w3.org/2000/svg">
<g clip-path="url(#clip0_98_464)">
<path d="M8 16C12.4183 16 16 12.4183 16 8C16 3.58172 12.4183 0 8 0C3.58172 0 0 3.58172 0 8C0 12.4183 3.58172 16 8 16Z" fill="#FF4A00"/>
<path d="M9 8.00172C9.00005 8.28992 8.94802 8.57577 8.84641 8.84547C8.57646 8.94748 8.29029 8.99983 8.00172 9H7.99828C7.71008 9.00002 7.42424 8.94799 7.15453 8.84641C7.05251 8.57646 7.00016 8.2903 7 8.00172V7.99828C7.00003 7.71008 7.05206 7.42425 7.15359 7.15453C7.42353 7.05251 7.7097 7.00015 7.99828 7H8.00172C8.29025 6.99988 8.57642 7.05197 8.84641 7.15375C8.94802 7.42345 9.00006 7.70929 9 7.9975V8.00094V8.00172ZM11.9444 7.33328H9.60938L11.2605 5.68234C11.1308 5.50047 10.9862 5.32972 10.8281 5.17188C10.6702 5.01405 10.4995 4.86965 10.3177 4.74016L8.66672 6.39062V4.05562C8.44713 4.01874 8.22486 4.00013 8.00219 4H7.99797C7.7753 4.00013 7.55303 4.01874 7.33344 4.05562V6.39062L5.68234 4.73953C5.50047 4.86922 5.32973 5.01383 5.17188 5.17188C5.01411 5.32965 4.86976 5.50029 4.74031 5.68203L6.39062 7.33328H4.05562C4.05562 7.33328 4 7.77188 4 7.99859V8.00141C4.00009 8.22433 4.0187 8.44687 4.05562 8.66672H6.39062L4.73953 10.3177C4.99917 10.6822 5.31782 11.0008 5.68234 11.2605L7.33328 9.60938V11.9444C7.55267 11.9812 7.77473 11.9998 7.99719 12H8.00297C8.22537 11.9998 8.44738 11.9812 8.66672 11.9444V9.60938L10.3177 11.2605C10.4995 11.1308 10.6703 10.9862 10.8281 10.8281C10.986 10.6702 11.1305 10.4995 11.26 10.3177L9.60938 8.66672H11.9444C11.9812 8.44733 11.9998 8.22527 12 8.00281V7.99703C11.9998 7.77463 11.9812 7.55262 11.9444 7.33328Z" fill="white"/>
</g>
<defs>
<clipPath id="clip0_98_464">
<rect width="16" height="16" fill="white"/>
</clipPath>
</defs>
</svg>
