<svg width="16" height="16" fill="none" xmlns="http://www.w3.org/2000/svg"><path d="M0 13.044c0 .578.473 1.047 1.055 1.047h.015c-.591 0-1.07-.469-1.07-1.047zm9.067-8.117v2.735l3.686-2.974v-2.64A1.05 1.05 0 0011.698 1H3.712l-.007 3.927h5.362z" fill="#FBBC05"/><path d="M9.067 10.397h-5.37l-.007 3.694h8.008a1.05 1.05 0 001.056-1.047V10.66L9.067 7.663v2.734z" fill="#34A853"/><path d="M3.712 1L0 4.927h3.706L3.712 1z" fill="#EA4335"/><path d="M0 10.397v2.647c0 .578.479 1.047 1.07 1.047h2.62l.006-3.694H0z" fill="#1967D2"/><path d="M3.706 4.927H0v5.47h3.696l.01-5.47z" fill="#4285F4"/><path d="M15.995 12.113v-8.99c-.208-1.192-1.516.175-1.516.175l-1.725 1.39v5.97l2.468 2.007c.891.117.773-.552.773-.552z" fill="#34A853"/><path d="M9.067 7.662l3.687 2.997V4.69L9.067 7.662z" fill="#188038"/></svg>