<svg width="16" height="16" viewBox="0 0 16 16" fill="none" xmlns="http://www.w3.org/2000/svg">
<path fill-rule="evenodd" clip-rule="evenodd" d="M1.77778 0C0.795938 0 0 0.795938 0 1.77778L0 14.2222C0 15.2041 0.795938 16 1.77778 16L14.2222 16C15.2041 16 16 15.2041 16 14.2222L16 1.77778C16 0.795938 15.2041 0 14.2222 0L1.77778 0Z" fill="white"/>
<path fill-rule="evenodd" clip-rule="evenodd" d="M1.77778 0C0.795938 0 0 0.795938 0 1.77778L0 14.2222C0 15.2041 0.795938 16 1.77778 16L14.2222 16C15.2041 16 16 15.2041 16 14.2222L16 1.77778C16 0.795938 15.2041 0 14.2222 0L1.77778 0ZM11.0231 6.52731C11.0231 6.52731 10.1582 9.13967 10.0876 9.3554C9.86976 7.71816 9.64991 6.08117 9.428 4.44444C7.95422 4.44444 7.16622 5.45463 6.74978 6.52089L5.60978 9.36182C5.60311 9.15808 5.44978 6.55171 5.44978 6.55171C5.35911 5.24532 4.11644 4.45001 3.11111 4.45001L4.32844 11.5556C5.87244 11.5491 6.70489 10.5449 7.14089 9.47868C7.14089 9.47868 8.06978 7.16809 8.108 7.06322C8.11467 7.16167 8.77467 11.5551 8.77467 11.5551C10.3249 11.5551 11.1578 10.6126 11.6058 9.58355L13.7778 4.45044C12.2467 4.45044 11.4396 5.45506 11.0231 6.52731Z" fill="#4353FF"/>
</svg>
