<svg width="16" height="16" viewBox="0 0 16 16" fill="none" xmlns="http://www.w3.org/2000/svg">
<path d="M0.620117 6.46169C0.620117 4.59193 0.620117 3.65704 0.983999 2.94289C1.30408 2.3147 1.81482 1.80396 2.44301 1.48388C3.15717 1.12 4.09205 1.12 5.96181 1.12H10.0384C11.9082 1.12 12.8431 1.12 13.5572 1.48388C14.1854 1.80396 14.6961 2.3147 15.0162 2.94289C15.3801 3.65704 15.3801 4.59193 15.3801 6.46169V10.5383C15.3801 12.4081 15.3801 13.343 15.0162 14.0571C14.6961 14.6853 14.1854 15.196 13.5572 15.5161C12.8431 15.88 11.9082 15.88 10.0384 15.88H5.96181C4.09205 15.88 3.15717 15.88 2.44301 15.5161C1.81482 15.196 1.30408 14.6853 0.983999 14.0571C0.620117 13.343 0.620117 12.4081 0.620117 10.5383V6.46169Z" fill="#001E36"/>
<path d="M3.78296 11.935V5.44435C3.78296 5.40023 3.80141 5.37498 3.84446 5.37498C4.48 5.37498 5.11526 5.33713 5.75094 5.33713C6.78251 5.33713 7.89942 5.68984 8.29093 6.76895C8.38318 7.0339 8.43236 7.30511 8.43236 7.58898C8.43236 8.13146 8.30938 8.57927 8.06336 8.93251C7.37618 9.91921 6.18515 9.90387 5.11753 9.90387V11.9287C5.12586 11.9886 5.07478 12.017 5.02528 12.017H3.85676C3.80756 12.017 3.78296 11.9917 3.78296 11.935ZM5.12364 6.59236V8.71174C5.54699 8.74273 5.98995 8.74611 6.39669 8.61084C6.84576 8.48127 7.09168 8.09261 7.09168 7.62683C7.10412 7.22994 6.88788 6.84913 6.51973 6.70591C6.11789 6.5388 5.55743 6.52879 5.12364 6.59236Z" fill="#31A8FF"/>
<path d="M12.2683 8.29302C12.0822 8.19492 11.884 8.12317 11.6791 8.07974C11.4158 8.0178 10.3775 7.80083 10.377 8.34378C10.3863 8.64689 10.8674 8.79539 11.08 8.882C11.8264 9.13824 12.671 9.59627 12.6544 10.517C12.6772 11.6633 11.5666 12.1215 10.6147 12.1216C10.1191 12.1267 9.60281 12.05 9.14926 11.8372C9.10593 11.8143 9.0781 11.7653 9.07994 11.7153V10.6186C9.07504 10.5746 9.12227 10.5362 9.15917 10.5678C9.60355 10.8365 10.1303 10.9671 10.6444 10.974C10.8713 10.974 11.3211 10.952 11.3177 10.6186C11.3177 10.2986 10.7797 10.1515 10.5652 10.0702C10.2543 9.95921 9.95948 9.80544 9.6889 9.61319C9.31073 9.34346 9.07351 8.91099 9.07994 8.43519C9.07773 7.35592 10.1 6.87147 11.0207 6.87126C11.451 6.86768 11.9132 6.89957 12.3139 7.07437C12.3715 7.09129 12.3834 7.15202 12.3832 7.20637V8.23208C12.3868 8.29576 12.3161 8.31742 12.2683 8.29302Z" fill="#31A8FF"/>
</svg>
