<svg width="16" height="16" viewBox="0 0 16 16" fill="none" xmlns="http://www.w3.org/2000/svg">
<path d="M0.620117 6.46169C0.620117 4.59193 0.620117 3.65704 0.983999 2.94289C1.30408 2.3147 1.81482 1.80396 2.44301 1.48388C3.15717 1.12 4.09205 1.12 5.96181 1.12H10.0384C11.9082 1.12 12.8431 1.12 13.5572 1.48388C14.1854 1.80396 14.6961 2.3147 15.0162 2.94289C15.3801 3.65704 15.3801 4.59193 15.3801 6.46169V10.5383C15.3801 12.4081 15.3801 13.343 15.0162 14.0571C14.6961 14.6853 14.1854 15.196 13.5572 15.5161C12.8431 15.88 11.9082 15.88 10.0384 15.88H5.96181C4.09205 15.88 3.15717 15.88 2.44301 15.5161C1.81482 15.196 1.30408 14.6853 0.983999 14.0571C0.620117 13.343 0.620117 12.4081 0.620117 10.5383V6.46169Z" fill="#330000"/>
<path d="M7.77282 10.3958H5.4856L5.02024 11.8785C5.00733 11.9335 4.95661 11.9725 4.90142 11.9698H3.74294C3.67687 11.9698 3.65377 11.9326 3.67363 11.8581L5.65392 6.00861C5.67374 5.94767 5.69356 5.8783 5.71333 5.80044C5.73926 5.66491 5.75249 5.52722 5.75297 5.38916C5.74728 5.34836 5.78312 5.31233 5.82224 5.31804H7.3966C7.44273 5.31804 7.46908 5.33497 7.47578 5.36882L9.72346 11.8683C9.74323 11.936 9.72346 11.9699 9.66405 11.9698H8.37682C8.3317 11.975 8.28858 11.944 8.27783 11.8987L7.77282 10.3958ZM5.84206 9.11617H7.40651C7.14948 8.23784 6.85939 7.37106 6.62428 6.48594C6.37062 7.37259 6.09387 8.25566 5.84206 9.11617Z" fill="#FF9A00"/>
<path d="M11.0601 6.39448C10.9591 6.39865 10.8584 6.38088 10.7645 6.3424C10.6707 6.30392 10.5858 6.24551 10.5155 6.17108C10.4454 6.09338 10.3909 6.00229 10.3552 5.90292C10.3195 5.80361 10.3033 5.69802 10.3075 5.59223C10.304 5.48748 10.3219 5.38316 10.3603 5.28604C10.3987 5.18891 10.4567 5.10119 10.5304 5.02859C10.6033 4.95675 10.6895 4.90046 10.7838 4.86299C10.8781 4.82551 10.9788 4.80759 11.0799 4.81026C11.3175 4.81026 11.504 4.88304 11.6393 5.02859C11.7076 5.10424 11.7607 5.19296 11.7956 5.28967C11.8303 5.38638 11.8463 5.48922 11.8423 5.59223C11.8464 5.69839 11.8297 5.8044 11.7931 5.90382C11.7566 6.00324 11.7009 6.09412 11.6294 6.17108C11.5547 6.24662 11.4655 6.30545 11.3676 6.34393C11.2696 6.38236 11.1649 6.3996 11.0601 6.39448ZM10.3769 11.8682V7.01398C10.3769 6.95304 10.4032 6.92258 10.4561 6.92258H11.674C11.7267 6.92258 11.7531 6.95304 11.7532 7.01398V11.8682C11.7532 11.936 11.7268 11.9699 11.674 11.9698H10.466C10.4066 11.9698 10.3769 11.936 10.3769 11.8682Z" fill="#FF9A00"/>
</svg>
