<svg width="16" height="16" viewBox="0 0 16 16" fill="none" xmlns="http://www.w3.org/2000/svg">
<path fill-rule="evenodd" clip-rule="evenodd" d="M8 8.5C8 7.11929 9.11929 6 10.5 6C11.8807 6 13 7.11929 13 8.5C13 9.88071 11.8807 11 10.5 11C9.11929 11 8 9.88071 8 8.5Z" fill="#1ABCFE"/>
<path fill-rule="evenodd" clip-rule="evenodd" d="M3 13.5C3 12.1193 4.11929 11 5.5 11H8V13.5C8 14.8807 6.88071 16 5.5 16C4.11929 16 3 14.8807 3 13.5Z" fill="#0ACF83"/>
<path fill-rule="evenodd" clip-rule="evenodd" d="M8 1L8 6H10.5C11.8807 6 13 4.88071 13 3.5C13 2.11929 11.8807 1 10.5 1L8 1Z" fill="#FF7262"/>
<path fill-rule="evenodd" clip-rule="evenodd" d="M3 3.5C3 4.88071 4.11929 6 5.5 6L8 6L8 1L5.5 1C4.11929 1 3 2.11929 3 3.5Z" fill="#F24E1E"/>
<path fill-rule="evenodd" clip-rule="evenodd" d="M3 8.5C3 9.88071 4.11929 11 5.5 11H8L8 6L5.5 6C4.11929 6 3 7.11929 3 8.5Z" fill="#A259FF"/>
</svg>
