<svg width="16" height="16" viewBox="0 0 16 16" fill="none" xmlns="http://www.w3.org/2000/svg">
<path d="M0.620117 6.46169C0.620117 4.59193 0.620117 3.65704 0.983999 2.94289C1.30408 2.3147 1.81482 1.80396 2.44301 1.48388C3.15717 1.12 4.09205 1.12 5.96181 1.12H10.0384C11.9082 1.12 12.8431 1.12 13.5572 1.48388C14.1854 1.80396 14.6961 2.3147 15.0162 2.94289C15.3801 3.65704 15.3801 4.59193 15.3801 6.46169V10.5383C15.3801 12.4081 15.3801 13.343 15.0162 14.0571C14.6961 14.6853 14.1854 15.196 13.5572 15.5161C12.8431 15.88 11.9082 15.88 10.0384 15.88H5.96181C4.09205 15.88 3.15717 15.88 2.44301 15.5161C1.81482 15.196 1.30408 14.6853 0.983999 14.0571C0.620117 13.343 0.620117 12.4081 0.620117 10.5383V6.46169Z" fill="#00005B"/>
<path d="M3.78296 11.5552V4.91962C3.78296 4.87448 3.80146 4.84869 3.84464 4.84869C4.48208 4.84869 5.11921 4.81 5.75685 4.81C6.79142 4.81 7.9117 5.17058 8.30437 6.27382C8.39688 6.54467 8.44622 6.82194 8.44622 7.11214C8.44622 7.66669 8.32287 8.12451 8.07612 8.48566C7.38693 9.4944 6.19232 9.47874 5.12148 9.47874V11.5487C5.12986 11.61 5.07862 11.639 5.02897 11.639H3.85698C3.80763 11.639 3.78296 11.6132 3.78296 11.5552ZM5.12765 6.09327V8.25994C5.55226 8.29167 5.99654 8.2951 6.40449 8.15677C6.85488 8.02436 7.10153 7.627 7.10153 7.15083C7.11408 6.74509 6.89716 6.35574 6.5279 6.20935C6.12484 6.0385 5.56275 6.02828 5.12765 6.09327Z" fill="#9999FF"/>
<path d="M9.28243 6.50312H10.365C10.4246 6.5037 10.4783 6.54677 10.494 6.60697C10.5734 6.7911 10.5832 7.01318 10.5834 7.21197C10.7691 6.98598 10.9929 6.79774 11.2438 6.65652C11.5129 6.49737 11.818 6.41667 12.1271 6.42294C12.1784 6.41525 12.2238 6.46274 12.2165 6.51635V7.77259C12.2165 7.82114 12.1833 7.84528 12.1172 7.84528C11.659 7.81223 10.9457 7.9254 10.6127 8.3021V11.5685C10.6127 11.6308 10.5863 11.662 10.5333 11.662H9.37183C9.3148 11.6705 9.26445 11.6168 9.27252 11.5581V8.01138C9.27252 7.53616 9.28238 7.0466 9.21295 6.57581C9.20225 6.53248 9.24189 6.49221 9.28243 6.50312Z" fill="#9999FF"/>
</svg>
